<svg width="1774" height="52" viewBox="0 0 1774 52" fill="none" xmlns="http://www.w3.org/2000/svg">
<path d="M40.0224 19.0381V23.2129H6.17865V3.50781H39.4101V7.79395H11.5224V19.0381H40.0224ZM45.6445 29.2803V33.5664H25.2714V50.4326H20.0947V33.5664H-6.10352e-05V29.2803H45.6445ZM106.543 26.7754V31.0059H86.7268V40.1904H81.4944V31.0059H60.8987V26.7754H106.543ZM101.478 45.2002V49.4863H66.5764V35.8486H71.8088V45.2002H101.478ZM72.1428 2.22754V8.29492H95.2434V2.22754H100.531V22.3779H66.9104V2.22754H72.1428ZM72.1428 18.1475H95.2434V12.2471H72.1428V18.1475ZM150.38 0.668945V50.6553H145.092V0.668945H150.38ZM123.717 4.39844C131.12 4.39844 136.575 11.1895 136.575 21.877C136.575 32.6201 131.12 39.4111 123.717 39.4111C116.202 39.4111 110.803 32.6201 110.803 21.877C110.803 11.1895 116.202 4.39844 123.717 4.39844ZM123.717 9.12988C119.097 9.12988 115.924 14.0283 115.924 21.877C115.924 29.7812 119.097 34.6797 123.717 34.6797C128.281 34.6797 131.454 29.7812 131.454 21.877C131.454 14.0283 128.281 9.12988 123.717 9.12988ZM187.176 8.62891C187.176 15.1973 191.74 21.2646 199.199 23.7139L196.36 27.8887C190.905 25.9683 186.814 22.0718 184.671 17.1455C182.472 22.7397 178.242 27.1094 172.425 29.2803L169.586 25.0498C177.379 22.2666 181.888 15.6426 181.943 8.18359V3.28516H187.176V8.62891ZM209.163 0.668945V13.1934H216.4V17.6465H209.163V30.7832H203.875V0.668945H209.163ZM193.076 31.9521C203.318 31.9521 209.609 35.3477 209.609 41.1924C209.609 47.0928 203.318 50.4883 193.076 50.4326C182.723 50.4883 176.321 47.0928 176.321 41.1924C176.321 35.3477 182.723 31.9521 193.076 31.9521ZM193.076 36.127C185.84 36.127 181.554 38.0195 181.61 41.1924C181.554 44.4766 185.84 46.2578 193.076 46.3135C200.257 46.2578 204.432 44.4766 204.432 41.1924C204.432 38.0195 200.257 36.127 193.076 36.127ZM235.299 8.62891C235.299 15.1973 239.863 21.2646 247.322 23.7139L244.483 27.8887C239.028 25.9683 234.937 22.0718 232.794 17.1455C230.595 22.7397 226.365 27.1094 220.548 29.2803L217.709 25.0498C225.502 22.2666 230.011 15.6426 230.066 8.18359V3.28516H235.299V8.62891ZM257.286 0.668945V13.1934H264.522V17.6465H257.286V30.7832H251.998V0.668945H257.286ZM241.199 31.9521C251.441 31.9521 257.731 35.3477 257.731 41.1924C257.731 47.0928 251.441 50.4883 241.199 50.4326C230.845 50.4883 224.444 47.0928 224.444 41.1924C224.444 35.3477 230.845 31.9521 241.199 31.9521ZM241.199 36.127C233.963 36.127 229.677 38.0195 229.732 41.1924C229.677 44.4766 233.963 46.2578 241.199 46.3135C248.38 46.2578 252.554 44.4766 252.554 41.1924C252.554 38.0195 248.38 36.127 241.199 36.127ZM305.075 0.668945V20.875H313.09V25.2725H305.075V50.5439H299.842V0.668945H305.075ZM295.5 8.46191V12.8037H265.943V8.46191H278.245V1.33691H283.533V8.46191H295.5ZM280.916 16.4775C288.041 16.4775 293.274 21.2646 293.329 28.0557C293.274 34.9023 288.041 39.6338 280.916 39.6895C273.736 39.6338 268.503 34.9023 268.503 28.0557C268.503 21.2646 273.736 16.4775 280.916 16.4775ZM280.916 20.8193C276.686 20.8193 273.513 23.7695 273.569 28.0557C273.513 32.3975 276.686 35.292 280.916 35.2363C285.147 35.292 288.264 32.3975 288.264 28.0557C288.264 23.7695 285.147 20.8193 280.916 20.8193ZM354.7 15.2529V19.4834H320.356V2.4502H325.588V15.2529H354.7ZM359.933 25.7734V30.0039H314.288V25.7734H359.933ZM355.034 45.0332V49.375H319.966V34.7354H325.254V45.0332H355.034ZM393.222 13.3604C393.222 22.4893 398.343 31.5625 405.969 35.0137L402.741 39.2441C397.063 36.4053 392.805 30.7554 390.606 23.9365C388.407 31.1172 384.037 37.1846 378.304 40.1904L374.964 35.9043C382.702 32.2305 387.878 22.6006 387.878 13.3604V4.84375H393.222V13.3604ZM416.824 0.668945V50.6553H411.591V21.543H400.458V17.2568H411.591V0.668945H416.824ZM446.076 1.22559C457.32 1.22559 463.889 4.28711 463.889 9.79785C463.889 15.3643 457.32 18.4258 446.076 18.4258C434.832 18.4258 428.264 15.3643 428.264 9.79785C428.264 4.28711 434.832 1.22559 446.076 1.22559ZM446.076 5.17773C438.116 5.2334 433.719 6.84766 433.774 9.79785C433.719 12.915 438.116 14.4736 446.076 14.4736C454.036 14.4736 458.434 12.915 458.434 9.79785C458.434 6.84766 454.036 5.2334 446.076 5.17773ZM468.843 21.376V25.5508H448.692V29.8369H463.109V41.5264H434.053V45.9795H464.501V50.043H428.876V37.6855H457.877V33.7891H428.82V29.8369H443.404V25.5508H423.365V21.376H468.843ZM487.742 4.23145C495.646 4.17578 501.268 9.07422 501.324 16.0879C501.268 23.1016 495.646 28 487.742 28C479.893 28 474.104 23.1016 474.16 16.0879C474.104 9.07422 479.893 4.17578 487.742 4.23145ZM487.742 8.7959C482.899 8.7959 479.337 11.6904 479.392 16.0879C479.337 20.4854 482.899 23.3799 487.742 23.3799C492.585 23.3799 496.147 20.4854 496.147 16.0879C496.147 11.6904 492.585 8.7959 487.742 8.7959ZM512.735 0.668945V50.6553H507.447V0.668945H512.735ZM471.766 35.5146C480.839 35.5146 493.42 35.4033 504.33 33.8447L504.719 37.6855C493.42 39.8564 481.34 39.9121 472.434 39.9121L471.766 35.5146ZM578.031 39.9121V44.3096H532.387V39.9121H552.481V28.3896H537.619V4.67676H572.576V28.3896H557.714V39.9121H578.031ZM542.74 8.90723V24.2148H567.399V8.90723H542.74ZM591.364 30.5605V35.8486H614.798V30.5605H620.086V49.9316H586.131V30.5605H591.364ZM591.364 45.7012H614.798V39.9678H591.364V45.7012ZM625.987 23.0459V27.4434H580.509V23.0459H625.987ZM605.948 3.34082C605.948 9.07422 613.908 14.6406 623.482 15.8096L621.589 19.9844C613.49 18.8433 606.449 15.0303 603.276 9.74219C600.02 15.0581 592.95 18.8433 584.962 19.9844L582.959 15.8096C592.644 14.585 600.548 9.24121 600.548 3.34082V1.22559H605.948V3.34082ZM651.343 1.50391C662.587 1.50391 669.155 4.50977 669.155 10.0762C669.155 15.6426 662.587 18.7041 651.343 18.7041C640.099 18.7041 633.53 15.6426 633.53 10.0762C633.53 4.50977 640.099 1.50391 651.343 1.50391ZM651.343 5.40039C643.383 5.40039 638.986 7.12598 639.041 10.0762C638.986 13.1377 643.383 14.752 651.343 14.752C659.303 14.752 663.7 13.1377 663.7 10.0762C663.7 7.12598 659.303 5.40039 651.343 5.40039ZM674.11 21.7656V25.9961H628.632V21.7656H674.11ZM668.376 29.8369V41.5264H639.32V45.9795H669.768V50.043H634.143V37.6855H663.144V33.7891H634.087V29.8369H668.376ZM728.718 0.668945V12.5254H735.955V16.9229H728.718V28.835H723.43V0.668945H728.718ZM713.912 3.95312V8.23926H696.99V21.9883C706.703 21.9604 712.186 21.5986 718.42 20.374L719.033 24.6045C712.297 26.0518 706.397 26.2744 695.709 26.2744H691.757V3.95312H713.912ZM728.718 31.2842V49.876H696.878V31.2842H728.718ZM702.055 35.5146V45.6455H723.486V35.5146H702.055ZM783.131 26.7197V30.9502H737.653V26.7197H783.131ZM778.01 45.2002V49.4863H743.387V35.0137H748.731V45.2002H778.01ZM760.364 2.33887C771.163 2.2832 778.177 6.06836 778.177 12.3027C778.177 18.5928 771.163 22.3779 760.364 22.4336C749.51 22.3779 742.552 18.5928 742.552 12.3027C742.552 6.06836 749.51 2.2832 760.364 2.33887ZM760.364 6.56934C752.738 6.56934 747.951 8.74023 748.007 12.3027C747.951 15.9766 752.738 18.0918 760.364 18.0918C767.99 18.0918 772.722 15.9766 772.722 12.3027C772.722 8.74023 767.99 6.56934 760.364 6.56934ZM824.492 5.73438C824.436 20.4297 819.927 33.5107 801.725 42.4727L798.83 38.5205C807.848 34.0952 813.22 28.7236 816.198 22.3779L799.888 23.9365L799.109 19.3721L817.812 18.0918C818.563 15.5591 819.009 12.8594 819.203 10.0205H801.725V5.73438H824.492ZM837.406 0.668945V20.5967H845.143V24.9385H837.406V50.4883H832.118V0.668945H837.406ZM887.087 24.3262V28.668H852.353V5.12207H886.642V9.46387H857.585V24.3262H887.087ZM892.319 39.5781V43.9756H846.675V39.5781H892.319ZM940.386 23.5469V27.6104H894.742V23.5469H940.386ZM934.764 31.1172V42.083H905.485V46.2021H936.323V49.9316H900.197V38.5762H929.532V34.9023H900.141V31.1172H934.764ZM934.653 1.94922V12.748H905.819V16.5332H935.488V20.2627H900.587V9.24121H929.365V5.67871H900.475V1.94922H934.653ZM995.552 0.279297V12.748H1002.4V18.7041H995.552V30.8389H988.427V0.279297H995.552ZM995.552 33.0654V50.377H962.432V33.0654H995.552ZM969.445 38.6318V44.6992H988.538V38.6318H969.445ZM985.421 4.84375V10.4658H955.362V4.84375H966.885V0.000976562H973.954V4.84375H985.421ZM970.392 12.0244C977.739 12.0244 982.86 15.7539 982.86 21.0977C982.86 26.6084 977.739 30.2822 970.392 30.2822C962.933 30.2822 957.811 26.6084 957.811 21.0977C957.811 15.7539 962.933 12.0244 970.392 12.0244ZM970.392 17.3682C966.996 17.3682 964.714 18.7041 964.769 21.0977C964.714 23.6582 966.996 25.0498 970.392 25.0498C973.787 25.0498 976.125 23.6582 976.125 21.0977C976.125 18.7041 973.787 17.3682 970.392 17.3682ZM1015.95 6.06836C1015.9 18.7041 1014.67 30.0596 1008.22 40.0791L1002.71 37.1846C1007.91 29.3081 1009.47 21.6265 1009.83 11.8018H1004.38V6.06836H1015.95ZM1027.31 6.06836C1027.28 10.5215 1027.2 14.9468 1026.81 19.2607H1031.15V1.39258H1037.83V48.707H1031.15V24.9941H1026.08C1025 31.2007 1023.08 37.1567 1019.57 42.6396L1014.17 39.6338C1019.82 31.0059 1020.99 22.0718 1021.24 11.8018H1017.4V6.06836H1027.31ZM1047.79 0.279297V50.9336H1041V0.279297H1047.79ZM1083.31 11.7461C1083.31 21.042 1087.54 30.3936 1096.11 34.0117L1091.94 39.6895C1086.15 37.0732 1082.14 32.0356 1079.86 25.7734C1077.55 32.5923 1073.4 38.103 1067.22 40.9141L1062.94 35.0137C1071.79 31.2842 1076.07 21.5986 1076.13 11.7461V4.17578H1083.31V11.7461ZM1106.02 0.279297V51.0449H1098.84V0.279297H1106.02ZM1130.71 8.96289C1130.71 15.5312 1134.22 22.0439 1142.29 24.7158L1138.45 30.2822C1133.07 28.3062 1129.37 24.5767 1127.26 19.873C1125.06 25.1611 1121.11 29.3359 1115.23 31.4512L1111.39 25.8848C1119.85 23.1016 1123.53 16.1436 1123.53 8.90723V3.39648H1130.71V8.96289ZM1154.42 0.334961V37.7412H1147.35V16.8115H1137.83V11.0781H1147.35V0.334961H1154.42ZM1155.48 44.3652V50.043H1120.69V33.7891H1127.87V44.3652H1155.48ZM1182.95 2.83984C1193.64 2.89551 1201.99 8.62891 1202.04 17.4238C1201.99 26.2744 1193.64 32.0635 1182.95 32.0078C1172.21 32.0635 1163.91 26.2744 1163.91 17.4238C1163.91 8.62891 1172.21 2.89551 1182.95 2.83984ZM1182.95 8.62891C1175.94 8.57324 1170.82 11.9688 1170.82 17.4238C1170.82 22.9346 1175.94 26.2188 1182.95 26.2188C1189.96 26.2188 1194.97 22.9346 1195.03 17.4238C1194.97 11.9688 1189.96 8.57324 1182.95 8.62891ZM1206.22 39.0215V44.7549H1159.85V39.0215H1206.22ZM1254.34 39.4668V45.3115H1207.97V39.4668H1227.51V31.8408H1213.32V14.8076H1241.98V9.24121H1213.26V3.56348H1249V20.374H1220.44V26.0518H1250.17V31.8408H1234.58V39.4668H1254.34ZM1314.29 23.9922V29.5586H1268.09V23.9922H1314.29ZM1291.14 32.3975C1302.1 32.3975 1308.73 35.7373 1308.78 41.6934C1308.73 47.6494 1302.1 50.9893 1291.14 50.9893C1280 50.9893 1273.38 47.6494 1273.38 41.6934C1273.38 35.7373 1280 32.3975 1291.14 32.3975ZM1291.14 37.7412C1284.12 37.7412 1280.56 39.0215 1280.62 41.6934C1280.56 44.3096 1284.12 45.5898 1291.14 45.5898C1297.98 45.5898 1301.6 44.3096 1301.66 41.6934C1301.6 39.0215 1297.98 37.7412 1291.14 37.7412ZM1291.19 1.33691C1302.33 1.39258 1309.56 5.17773 1309.62 11.3008C1309.56 17.4795 1302.33 21.209 1291.19 21.209C1280 21.209 1272.71 17.4795 1272.71 11.3008C1272.71 5.17773 1280 1.39258 1291.19 1.33691ZM1291.19 6.90332C1284.12 6.90332 1280.06 8.29492 1280.12 11.3008C1280.06 14.251 1284.12 15.6982 1291.19 15.6982C1298.21 15.6982 1302.27 14.251 1302.27 11.3008C1302.27 8.29492 1298.21 6.90332 1291.19 6.90332ZM1335.92 11.7461C1335.92 21.042 1340.15 30.3936 1348.72 34.0117L1344.55 39.6895C1338.76 37.0732 1334.75 32.0356 1332.47 25.7734C1330.16 32.5923 1326.01 38.103 1319.83 40.9141L1315.55 35.0137C1324.4 31.2842 1328.68 21.5986 1328.74 11.7461V4.17578H1335.92V11.7461ZM1358.63 0.279297V51.0449H1351.45V0.279297H1358.63ZM1404.3 0.279297V20.0957H1411.76V25.9404H1404.3V50.9336H1397.29V0.279297H1404.3ZM1393.84 7.84961V13.5273H1364.06V7.84961H1375.53V1.05859H1382.65V7.84961H1393.84ZM1379.09 16.3662C1386.49 16.3662 1392 21.376 1392 28.4453C1392 35.5146 1386.49 40.5244 1379.09 40.5244C1371.63 40.5244 1366.12 35.5146 1366.12 28.4453C1366.12 21.376 1371.63 16.3662 1379.09 16.3662ZM1379.09 22.0996C1375.53 22.1553 1372.91 24.5488 1372.91 28.4453C1372.91 32.3975 1375.53 34.7354 1379.09 34.6797C1382.65 34.7354 1385.21 32.3975 1385.21 28.4453C1385.21 24.5488 1382.65 22.1553 1379.09 22.0996ZM1426.43 3.8418C1430.97 3.8418 1434.75 6.34668 1437.06 10.6885H1448.2V0.279297H1455.21V51.0449H1448.2V32.0635H1437.62C1435.34 37.0732 1431.33 39.9678 1426.43 39.9678C1418.75 39.9678 1413.24 33.0098 1413.29 21.877C1413.24 10.8555 1418.75 3.8418 1426.43 3.8418ZM1426.43 10.2432C1422.65 10.2432 1420.03 14.3623 1420.09 21.877C1420.03 29.4473 1422.65 33.5107 1426.43 33.5107C1430.27 33.5107 1432.78 29.4473 1432.78 21.877C1432.78 14.3623 1430.27 10.2432 1426.43 10.2432ZM1439.07 16.4219C1439.37 18.0918 1439.57 19.9287 1439.57 21.877C1439.57 23.4634 1439.43 24.9663 1439.23 26.3857H1448.2V16.4219H1439.07ZM1491.56 8.96289C1491.56 15.5312 1495.07 22.0439 1503.14 24.7158L1499.3 30.2822C1493.93 28.3062 1490.22 24.5767 1488.11 19.873C1485.91 25.1611 1481.96 29.3359 1476.09 31.4512L1472.25 25.8848C1480.71 23.1016 1484.38 16.1436 1484.38 8.90723V3.39648H1491.56V8.96289ZM1515.27 0.334961V37.7412H1508.2V16.8115H1498.69V11.0781H1508.2V0.334961H1515.27ZM1516.33 44.3652V50.043H1481.54V33.7891H1488.72V44.3652H1516.33ZM1542.52 3.6748V9.35254H1529.27V13.5273H1542.02V18.9268H1529.27V23.3799C1534.9 23.3521 1539.07 23.1294 1543.75 22.3223L1544.47 28C1538.51 29.0576 1533.56 29.2246 1525.93 29.2246H1522.48V3.6748H1542.52ZM1564.23 0.334961V31.2285H1557.5V18.3701H1553.1V30.8389H1546.47V1.22559H1553.1V12.6924H1557.5V0.334961H1564.23ZM1564.23 33.3438V50.9336H1557.16V39.0215H1529.22V33.3438H1564.23ZM1593.26 8.0166V13.6387H1568.77V8.0166H1577.56V1.6709H1584.58V8.0166H1593.26ZM1581.13 15.9209C1587.58 15.9209 1592.2 20.9307 1592.26 27.9443C1592.2 35.0137 1587.58 40.0234 1581.13 40.0234C1574.67 40.0234 1569.94 35.0137 1569.94 27.9443C1569.94 20.9307 1574.67 15.9209 1581.13 15.9209ZM1581.13 21.8213C1578.18 21.8213 1576.17 24.1035 1576.17 27.9443C1576.17 31.7852 1578.18 34.0117 1581.13 34.0117C1583.97 34.0117 1585.97 31.7852 1586.02 27.9443C1585.97 24.1035 1583.97 21.8213 1581.13 21.8213ZM1612.63 0.279297V50.9336H1605.9V26.5527H1601.78V48.7627H1595.15V1.28125H1601.78V20.875H1605.9V0.279297H1612.63ZM1663.15 28.2227V33.9004H1643.44V50.9336H1636.43V33.9004H1616.95V28.2227H1663.15ZM1659.03 2.95117V8.51758H1644.28C1644.97 13.4717 1650.57 18.4536 1660.98 19.7061L1658.42 25.2725C1649.51 24.0757 1643.14 20.2627 1640.1 15.0303C1636.99 20.2627 1630.67 24.0757 1621.85 25.2725L1619.23 19.7061C1629.47 18.4536 1635.12 13.4717 1635.93 8.51758H1621.12V2.95117H1659.03ZM1681.32 13.0264C1681.32 21.209 1683.61 29.6699 1690.51 34.123L1686.67 39.6338C1682.3 36.9897 1679.51 32.6479 1677.93 27.4434C1676.09 33.1768 1673.06 37.9639 1668.47 40.7471L1664.12 35.5146C1671.64 30.8389 1674.42 21.9326 1674.42 13.3604V4.62109H1681.32V13.0264ZM1708.99 0.279297V50.9336H1702.2V0.279297H1708.99ZM1698.36 1.00293V48.5957H1691.73V23.1572H1685.16V17.3682H1691.73V1.00293H1698.36ZM1759.56 39.1885V45.0332H1713.19V39.1885H1723.55V26.7754C1719.62 24.4375 1717.26 20.8472 1717.26 16.3662C1717.26 8.18359 1725.27 2.72852 1736.29 2.72852C1747.26 2.72852 1755.33 8.18359 1755.39 16.3662C1755.36 20.7358 1753.05 24.2983 1749.26 26.6641V39.1885H1759.56ZM1736.29 8.35059C1729.06 8.35059 1724.27 11.2451 1724.27 16.3662C1724.27 21.3203 1729.06 24.3818 1736.29 24.3818C1743.47 24.3818 1748.32 21.3203 1748.37 16.3662C1748.32 11.2451 1743.47 8.35059 1736.29 8.35059ZM1730.56 39.1885H1742.08V29.3359C1740.27 29.6978 1738.33 29.8926 1736.29 29.8926C1734.26 29.8926 1732.34 29.7256 1730.56 29.3359V39.1885ZM1772.84 5.51172L1772.11 33.7334H1764.99L1764.27 5.51172H1772.84ZM1768.61 46.3135C1765.99 46.3135 1763.88 44.1982 1763.93 41.6377C1763.88 39.0771 1765.99 37.0176 1768.61 37.0176C1771.06 37.0176 1773.23 39.0771 1773.23 41.6377C1773.23 44.1982 1771.06 46.3135 1768.61 46.3135Z" fill="white"/>
</svg>
